<?xml version="1.0" standalone="no"?>
<!DOCTYPE svg PUBLIC "-//W3C//DTD SVG 20010904//EN"
 "http://www.w3.org/TR/2001/REC-SVG-20010904/DTD/svg10.dtd">
<svg version="1.0" xmlns="http://www.w3.org/2000/svg"
 width="500.000000pt" height="500.000000pt" viewBox="0 0 500.000000 500.000000"
 preserveAspectRatio="xMidYMid meet">
<metadata>
Created by potrace 1.14, written by Peter Selinger 2001-2017
</metadata>
<g transform="translate(0.000000,500.000000) scale(0.100000,-0.100000)"
fill="#000000" stroke="none">
<path d="M2548 4905 c-2 -2 -45 -5 -97 -9 -51 -3 -96 -8 -100 -10 -3 -2 -31
-7 -62 -10 -31 -4 -108 -20 -172 -36 -713 -180 -1188 -684 -1291 -1370 -8 -52
-11 -98 -8 -102 4 -4 140 -10 302 -13 162 -4 372 -8 465 -10 341 -8 1509 -18
2230 -19 l740 -1 -3 45 c-9 133 -77 375 -148 525 -263 558 -844 934 -1545
1000 -67 7 -306 14 -311 10z m1299 -858 c-57 -122 -176 -189 -325 -182 -119 6
-238 78 -286 174 -23 46 -42 111 -32 111 2 0 33 -7 68 -14 217 -50 345 -54
479 -12 46 14 91 30 99 36 26 17 25 -53 -3 -113z"/>
<path d="M317 4885 c-110 -24 -196 -102 -191 -173 7 -100 129 -180 279 -185
l54 -2 0 -581 1 -581 -43 -27 c-47 -30 -83 -76 -97 -127 -6 -20 -10 -225 -10
-494 l0 -460 88 -42 c81 -39 178 -114 169 -131 -3 -4 -8 -47 -11 -97 -9 -123
-16 -212 -21 -260 -2 -22 -6 -83 -10 -135 -3 -52 -8 -120 -10 -150 -3 -30 -7
-100 -11 -155 -3 -55 -8 -116 -9 -135 -1 -19 -6 -100 -10 -180 -4 -80 -9 -148
-11 -151 -6 -11 29 -35 151 -105 297 -167 785 -392 1175 -541 200 -76 194 -75
293 -77 l88 -3 -5 66 c-3 36 -8 97 -11 135 -10 123 -25 254 -40 346 -13 81
-16 100 -25 145 -6 28 -12 59 -14 70 -27 141 -89 345 -149 491 -214 521 -597
883 -1186 1119 l-106 43 -1 999 c0 549 1 1003 3 1008 2 6 45 11 97 11 182 3
311 67 323 163 11 78 -39 136 -158 183 -49 20 -75 22 -294 24 -165 2 -258 -2
-298 -11z"/>
<path d="M1888 2985 c-2 -2 -136 -6 -298 -9 -277 -6 -499 -13 -650 -21 -36 -2
-80 -4 -97 -4 l-33 -1 0 -54 0 -54 168 -41 c92 -22 178 -42 192 -44 14 -3 70
-14 125 -25 182 -38 311 -62 420 -77 22 -4 47 -8 56 -11 9 -2 32 -7 52 -9 19
-3 79 -12 133 -20 104 -17 130 -21 204 -30 25 -3 55 -7 68 -10 13 -2 43 -5 68
-6 24 -2 44 -5 45 -8 1 -3 2 -559 3 -1236 l1 -1230 340 0 340 0 3 1238 2 1237
30 1 c17 1 33 2 38 3 4 2 39 6 77 11 39 5 72 9 75 10 3 1 30 5 60 9 92 13 95
13 350 56 102 17 196 33 210 36 14 2 84 16 155 29 72 13 144 27 160 30 17 3
88 17 159 31 72 13 146 27 165 30 20 3 39 8 44 11 13 8 8 123 -5 124 -41 3
-481 16 -828 25 -195 5 -1828 13 -1832 9z"/>
<path d="M4546 2444 c-455 -184 -825 -503 -1040 -897 -67 -124 -175 -392 -191
-479 -3 -11 -11 -44 -19 -72 -12 -42 -24 -96 -42 -181 -5 -27 -34 -205 -39
-240 -3 -22 -7 -53 -10 -70 -2 -16 -7 -61 -10 -100 -3 -38 -8 -86 -10 -105 -3
-19 -7 -74 -10 -121 l-6 -86 88 2 c87 2 132 15 278 80 17 8 131 55 255 106
223 91 265 109 368 155 29 13 54 24 56 24 2 0 30 12 62 27 33 15 61 27 64 28
41 13 372 175 458 225 39 23 72 47 73 53 1 21 -3 131 -6 167 -2 19 -6 91 -10
160 -3 69 -8 143 -10 165 -2 22 -7 78 -10 125 -5 85 -11 167 -20 290 -3 36 -7
97 -10 135 -3 39 -7 90 -10 115 -2 25 -7 81 -10 125 -22 303 -31 353 -73 386
-35 27 -64 24 -166 -17z"/>
</g>
</svg>
